<?xml version="1.0" encoding="utf-8"?>
<!-- Generator: Adobe Illustrator 22.1.0, SVG Export Plug-In . SVG Version: 6.00 Build 0)  -->
<svg version="1.1" id="Ebene_1" xmlns="http://www.w3.org/2000/svg" xmlns:xlink="http://www.w3.org/1999/xlink" x="0px" y="0px"
	 viewBox="0 0 100 100" style="enable-background:new 0 0 100 100;" xml:space="preserve">
<style type="text/css">
	.st0{fill:#FBFAFB;}
</style>
<g>
	<path d="M70.2,46.8l-27-27c-1.2-1.2-3-1.2-4.2,0l-4.9,4.9c-0.6,0.6-0.9,1.3-0.9,2.1s0.3,1.5,0.9,2.1L54.2,49L34.1,69
		c-1.2,1.2-1.2,3,0,4.2l4.9,4.9c0.6,0.6,1.3,0.9,2.1,0.9c0.8,0,1.6-0.3,2.1-0.8l27-27.1c0.3-0.4,0.8-1,0.8-2
		C71.2,48.3,70.9,47.5,70.2,46.8z"/>
	<path class="st0" d="M41.1,18.9c0.8,0,1.5,0.3,2.1,0.9l27,27c0.7,0.7,1,1.5,0.8,2.3c0,1-0.5,1.6-0.8,2l-27,27.1
		c-0.5,0.5-1.3,0.8-2.1,0.8c-0.8,0-1.5-0.3-2.1-0.9l-4.9-4.9c-1.2-1.2-1.2-3,0-4.2l20.1-20L34.1,28.9c-0.6-0.6-0.9-1.3-0.9-2.1
		s0.3-1.5,0.9-2.1l4.9-4.9C39.6,19.2,40.4,18.9,41.1,18.9 M41.1,8.9c-3.4,0-6.7,1.4-9.2,3.8L27,17.6c-2.5,2.5-3.8,5.7-3.8,9.2
		c0,3.4,1.4,6.7,3.8,9.2l13,13L27,61.9c-5.2,5.2-5.2,13.2,0,18.4l4.9,4.9c2.5,2.5,5.7,3.8,9.2,3.8c3.5,0,6.8-1.4,9.2-3.7l27-27.1
		l0.5-0.5l0.4-0.6c0.6-0.9,2.4-3.2,2.8-6.9c0.5-3.8-0.8-7.6-3.7-10.5l-27-27C47.8,10.3,44.5,8.9,41.1,8.9L41.1,8.9z"/>
</g>
</svg>
